{"title":"Stolichani v poveche - Season 4 - Episode 5","uid":7736959,"size":660713366,"categoryP":"video","categoryS":"tv_shows","magnet":"?xt=urn:btih:1f1f1e28eae6892b44ef940a17845d283c34a2f5&amp;dn=Stolichani+v+poveche+-+Season+4+-+Episode+5&amp;tr=udp%3A%2F%2Ftracker.openbittorrent.com%3A80&amp;tr=udp%3A%2F%2Fopen.demonii.com%3A1337&amp;tr=udp%3A%2F%2Ftracker.coppersurfer.tk%3A6969&amp;tr=udp%3A%2F%2Fexodus.desync.com%3A6969","seeders":1,"leechers":0,"uploader":null,"files":1,"time":1350509600,"description":"HQ TVRip\n\nFormat                                   : AVI\nFormat/Info                              : Audio Video Interleave\nFile size                                : 630 MiB\nDuration                                 : 43mn 32s\nOverall bit rate                         : 2 023 Kbps\n\nVideo\nID                                       : 0\nFormat                                   : MPEG-4 Visual\nFormat profile                           : Advanced Simple@L5\nFormat settings, BVOP                    : 2\nFormat settings, QPel                    : No\nFormat settings, GMC                     : No warppoints\nFormat settings, Matrix                  : Default (H.263)\nMuxing mode                              : Packed bitstream\nCodec ID                                 : XVID\nCodec ID/Hint                            : XviD\nDuration                                 : 43mn 32s\nBit rate                                 : 1 886 Kbps\nWidth                                    : 768 pixels\nHeight                                   : 566 pixels\nDisplay aspect ratio                     : 16:9\nFrame rate                               : 25.000 fps\nColor space                              : YUV\nChroma subsampling                       : 4:2:0\nBit depth                                : 8 bits\nScan type                                : Progressive\nCompression mode                         : Lossy\nBits/(Pixel*Frame)                       : 0.174\nStream size                              : 587 MiB (93%)\nWriting library                          : XviD 1.1.2 (UTC 2006-11-01)\n\nAudio\nID                                       : 1\nFormat                                   : MPEG Audio\nFormat version                           : Version 1\nFormat profile                           : Layer 3\nMode                                     : Joint stereo\nMode extension                           : MS Stereo\nCodec ID                                 : 55\nCodec ID/Hint                            : MP3\nDuration                                 : 43mn 31s\nBit rate mode                            : Constant\nBit rate                                 : 128 Kbps\nChannel(s)                               : 2 channels\nSampling rate                            : 44.1 KHz\nCompression mode                         : Lossy\nStream size                              : 39.9 MiB (6%)\nAlignment                                : Split accross interleaves\nInterleave, duration                     : 40 ms (1.00 video frame)\nInterleave, preload duration             : 500 ms\n\n","torrent":{"xt":"urn:btih:1f1f1e28eae6892b44ef940a17845d283c34a2f5","amp;dn":"Stolichani+v+poveche+-+Season+4+-+Episode+5","amp;tr":["udp%3A%2F%2Ftracker.openbittorrent.com%3A80","udp%3A%2F%2Fopen.demonii.com%3A1337","udp%3A%2F%2Ftracker.coppersurfer.tk%3A6969","udp%3A%2F%2Fexodus.desync.com%3A6969"],"infoHash":"1f1f1e28eae6892b44ef940a17845d283c34a2f5","infoHashBuffer":{"type":"Buffer","data":[31,31,30,40,234,230,137,43,68,239,148,10,23,132,93,40,60,52,162,245]},"announce":[],"urlList":[]}}